# xmcd
# 
# Track frame offsets:
#     150
#     16527
#     31855
#     51447
#     68770
#     81545
#     98022
#     113955
#     129220
#     143780
# 
# Disc length: 2150
# 
# Revision: 22
# Processed by: cddbd v1.5.2PL0 Copyright (c) Steve Scherf et al.
# Submitted via: fre:ac v1.0.27
# 
DISCID=7b08640a
DTITLE=Fine Young Cannibals / The Raw & The Cooked
DYEAR=1988
DGENRE=English Pop Rock
TTITLE0=She Drives Me Crazy
TTITLE1=Good Thing
TTITLE2=I'm Not The Man I Used To Be
TTITLE3=I'm Not Satisfied
TTITLE4=Tell Me What
TTITLE5=Don't Look Back
TTITLE6=It's OK (It's Alright)
TTITLE7=Don't Let It Get You Down
TTITLE8=As Hard As It Is
TTITLE9=Ever Fallen In Love?
EXTD=IRS IRSD-6273\n\nFine Young Cannibals are:\nRobert Gift - Singing\nDavid Steele - Keyboards & Bass\nAndy Cox - Guitar\nRoland Gift\tsinging\nDavid Steele\tkeyboards & bass\nAndy Cox\tguitar
EXTT0=
EXTT1=
EXTT2=
EXTT3=
EXTT4=
EXTT5=
EXTT6=
EXTT7=
EXTT8=
EXTT9=
PLAYORDER=
.
